<?xml version="1.0" encoding="utf-8"?>
<!-- Generator: Adobe Illustrator 15.0.2, SVG Export Plug-In . SVG Version: 6.00 Build 0)  -->
<!DOCTYPE svg PUBLIC "-//W3C//DTD SVG 1.1//EN" "http://www.w3.org/Graphics/SVG/1.1/DTD/svg11.dtd">
<svg version="1.1" id="Layer_1" xmlns="http://www.w3.org/2000/svg" xmlns:xlink="http://www.w3.org/1999/xlink" x="0px" y="0px"
	 width="40px" height="40px" viewBox="0 0 40 40" enable-background="new 0 0 40 40" xml:space="preserve">
<g>
	<path fill="#181818" d="M19.917,4.105c-8.836,0-16,7.163-16,16c0,8.838,7.164,16,16,16c8.835,0,16-7.162,16-16
		C35.916,11.268,28.752,4.105,19.917,4.105z M9.25,19.89c0-1.454,1.179-2.633,2.634-2.633c1.454,0,2.633,1.18,2.633,2.633
		c0,1.455-1.179,2.633-2.633,2.633C10.428,22.522,9.25,21.345,9.25,19.89z M21.686,25.772l-3.908,3.908l-3.725-3.725l-2.115-2.115
		c0,0,2.907-0.494,3.84-3.566l2.05,1.906l8.553-8.552l3.725,3.725L21.686,25.772z"/>
</g>
<rect fill="none" width="40" height="40"/>
</svg>
