<?xml version="1.0" encoding="utf-8"?>
<!-- Generator: Adobe Illustrator 15.0.2, SVG Export Plug-In . SVG Version: 6.00 Build 0)  -->
<!DOCTYPE svg PUBLIC "-//W3C//DTD SVG 1.1//EN" "http://www.w3.org/Graphics/SVG/1.1/DTD/svg11.dtd">
<svg version="1.1" id="Layer_1" xmlns="http://www.w3.org/2000/svg" xmlns:xlink="http://www.w3.org/1999/xlink" x="0px" y="0px"
	 width="40px" height="40px" viewBox="0 0 40 40" enable-background="new 0 0 40 40" xml:space="preserve">
<rect fill="none" width="40" height="40"/>
<g>
	<defs>
		<path id="SVGID_1_" d="M-37.484-8.193c0,0.889-0.228,1.591-0.684,2.105c-0.456,0.514-1.066,0.771-1.831,0.771
			c-0.771,0-1.384-0.258-1.838-0.771c-0.454-0.515-0.681-1.217-0.681-2.105c0-0.888,0.227-1.59,0.681-2.106s1.067-0.774,1.838-0.774
			c0.765,0,1.375,0.258,1.831,0.774S-37.484-9.082-37.484-8.193z M-38.432-8.193c0-0.706-0.138-1.231-0.415-1.574
			s-0.661-0.515-1.152-0.515c-0.498,0-0.885,0.172-1.16,0.515s-0.413,0.868-0.413,1.574c0,0.684,0.138,1.203,0.415,1.556
			s0.663,0.53,1.157,0.53c0.488,0,0.872-0.176,1.15-0.525S-38.432-7.503-38.432-8.193z"/>
	</defs>
	<defs>
		<path id="SVGID_2_" d="M-32.417-7.041c0,0.498-0.206,0.907-0.618,1.227c-0.412,0.318-0.974,0.479-1.687,0.479
			c-0.404,0-0.774-0.049-1.111-0.145s-0.619-0.201-0.847-0.314v-1.031h0.049c0.29,0.219,0.612,0.393,0.967,0.521
			s0.695,0.192,1.021,0.192c0.404,0,0.719-0.064,0.947-0.195c0.228-0.13,0.342-0.335,0.342-0.615c0-0.215-0.062-0.377-0.186-0.488
			c-0.124-0.11-0.361-0.205-0.713-0.283c-0.13-0.029-0.3-0.062-0.51-0.102s-0.401-0.082-0.574-0.127
			c-0.479-0.127-0.818-0.314-1.018-0.56s-0.3-0.548-0.3-0.906c0-0.225,0.046-0.436,0.139-0.635s0.233-0.376,0.422-0.532
			c0.182-0.153,0.414-0.274,0.696-0.364s0.597-0.134,0.945-0.134c0.326,0,0.655,0.04,0.989,0.12s0.611,0.177,0.833,0.291v0.981
			h-0.049c-0.234-0.172-0.519-0.318-0.854-0.437s-0.664-0.178-0.986-0.178c-0.335,0-0.619,0.064-0.85,0.193s-0.347,0.32-0.347,0.574
			c0,0.225,0.07,0.394,0.21,0.508c0.137,0.114,0.358,0.207,0.664,0.279c0.169,0.039,0.359,0.078,0.569,0.117S-33.89-8.533-33.75-8.5
			c0.426,0.098,0.755,0.265,0.986,0.502C-32.533-7.757-32.417-7.438-32.417-7.041z"/>
	</defs>
	<defs>
		<path id="SVGID_3_" d="M-26.833-5.469h-0.917v-0.605c-0.309,0.244-0.605,0.432-0.889,0.562c-0.283,0.13-0.596,0.195-0.938,0.195
			c-0.573,0-1.019-0.176-1.338-0.525s-0.479-0.863-0.479-1.541v-3.54h0.918v3.106c0,0.276,0.013,0.514,0.039,0.71
			s0.082,0.365,0.166,0.505c0.088,0.144,0.202,0.248,0.342,0.312c0.14,0.065,0.343,0.098,0.61,0.098
			c0.238,0,0.497-0.062,0.779-0.186c0.282-0.123,0.544-0.281,0.789-0.473v-4.073h0.917V-5.469z"/>
	</defs>
	<defs>
		<path id="SVGID_4_" d="M-23.664-12.739l-0.127,5.268h-0.83l-0.137-5.268H-23.664z M-23.712-5.469h-0.996v-1.029h0.996V-5.469z"/>
	</defs>
	<clipPath id="SVGID_5_">
		<use xlink:href="#SVGID_1_"  overflow="visible"/>
	</clipPath>
	<clipPath id="SVGID_6_" clip-path="url(#SVGID_5_)">
		<use xlink:href="#SVGID_2_"  overflow="visible"/>
	</clipPath>
	<clipPath id="SVGID_7_" clip-path="url(#SVGID_6_)">
		<use xlink:href="#SVGID_3_"  overflow="visible"/>
	</clipPath>
	<clipPath id="SVGID_8_" clip-path="url(#SVGID_7_)">
		<use xlink:href="#SVGID_4_"  overflow="visible"/>
	</clipPath>
	<path clip-path="url(#SVGID_8_)" fill="#FFFFFF" d="M-17.091-8.797c0,8.837-7.164,16-16,16s-16-7.163-16-16s7.164-16,16-16
		S-17.091-17.634-17.091-8.797"/>
</g>
<g>
	<path fill="#1C140D" d="M13.083,18.924c-0.498,0-0.885,0.172-1.16,0.514c-0.275,0.344-0.413,0.869-0.413,1.575
		c0,0.684,0.138,1.201,0.415,1.555s0.663,0.529,1.157,0.529c0.488,0,0.872-0.174,1.15-0.524s0.417-0.87,0.417-1.56
		c0-0.706-0.138-1.231-0.415-1.575C13.958,19.096,13.575,18.924,13.083,18.924z"/>
	<path fill="#1C140D" d="M19.991,4.177c-8.836,0-16,7.163-16,16c0,8.836,7.164,15.999,16,15.999c8.835,0,15.999-7.163,15.999-15.999
		C35.99,11.34,28.826,4.177,19.991,4.177z M14.914,23.116c-0.456,0.515-1.066,0.771-1.831,0.771c-0.771,0-1.384-0.257-1.838-0.771
		c-0.454-0.514-0.681-1.215-0.681-2.104c0-0.888,0.227-1.591,0.681-2.106c0.454-0.517,1.067-0.774,1.838-0.774
		c0.765,0,1.375,0.258,1.831,0.774c0.456,0.516,0.684,1.219,0.684,2.106C15.598,21.901,15.37,22.603,14.914,23.116z M20.047,23.39
		c-0.412,0.319-0.974,0.479-1.687,0.479c-0.404,0-0.774-0.047-1.111-0.144s-0.619-0.201-0.847-0.315V22.38h0.049
		c0.29,0.218,0.612,0.391,0.967,0.52s0.695,0.193,1.021,0.193c0.404,0,0.719-0.065,0.947-0.195c0.228-0.131,0.342-0.336,0.342-0.615
		c0-0.215-0.062-0.378-0.186-0.488c-0.124-0.111-0.361-0.205-0.713-0.283c-0.13-0.029-0.3-0.064-0.51-0.104
		s-0.401-0.081-0.574-0.127c-0.479-0.127-0.818-0.312-1.018-0.558s-0.3-0.549-0.3-0.906c0-0.225,0.046-0.436,0.139-0.635
		s0.233-0.375,0.422-0.533c0.182-0.152,0.414-0.273,0.696-0.363c0.282-0.089,0.597-0.134,0.945-0.134c0.326,0,0.655,0.04,0.989,0.12
		c0.333,0.079,0.611,0.176,0.833,0.29v0.981h-0.049c-0.234-0.172-0.519-0.318-0.854-0.438c-0.335-0.117-0.664-0.178-0.986-0.178
		c-0.335,0-0.619,0.064-0.85,0.193s-0.347,0.32-0.347,0.574c0,0.225,0.07,0.393,0.21,0.508c0.137,0.113,0.358,0.205,0.664,0.277
		c0.169,0.039,0.359,0.078,0.569,0.117s0.385,0.074,0.525,0.107c0.426,0.098,0.755,0.266,0.986,0.503
		c0.231,0.24,0.347,0.56,0.347,0.957C20.665,22.663,20.459,23.071,20.047,23.39z M26.249,23.737h-0.917v-0.605
		c-0.31,0.244-0.605,0.431-0.889,0.561c-0.283,0.131-0.596,0.195-0.938,0.195c-0.573,0-1.02-0.174-1.338-0.524
		c-0.319-0.351-0.479-0.863-0.479-1.54v-3.54h0.918v3.104c0,0.277,0.013,0.514,0.039,0.711c0.025,0.197,0.081,0.365,0.166,0.506
		c0.088,0.143,0.201,0.247,0.342,0.312c0.14,0.064,0.343,0.098,0.609,0.098c0.238,0,0.498-0.062,0.779-0.186
		c0.281-0.124,0.545-0.282,0.789-0.475v-4.071h0.917V23.737z M29.369,23.737h-0.996v-1.031h0.996V23.737z M29.291,21.735h-0.83
		l-0.137-5.269h1.094L29.291,21.735z"/>
</g>
</svg>
