<?xml version="1.0" encoding="utf-8"?>
<!-- Generator: Adobe Illustrator 15.0.2, SVG Export Plug-In . SVG Version: 6.00 Build 0)  -->
<!DOCTYPE svg PUBLIC "-//W3C//DTD SVG 1.1//EN" "http://www.w3.org/Graphics/SVG/1.1/DTD/svg11.dtd">
<svg version="1.1" id="Layer_1" xmlns="http://www.w3.org/2000/svg" xmlns:xlink="http://www.w3.org/1999/xlink" x="0px" y="0px"
	 width="40px" height="40px" viewBox="0 0 40 40" enable-background="new 0 0 40 40" xml:space="preserve">
<g>
	<path fill="none" d="M19.501,37H36V20.387C36,29.224,28.338,37,19.501,37z"/>
	<path fill="none" d="M3,20.387V37h16.501C10.665,37,3,29.224,3,20.387z"/>
	<path fill="none" d="M19.501,5H3v15.387C3,11.55,10.665,5,19.501,5z"/>
	<path fill="none" d="M19.501,5C28.338,5,36,11.55,36,20.387V5H19.501z"/>
	<path fill="#181818" d="M19.501,4.387c-8.836,0-16.001,7.163-16.001,16s7.165,16.001,16.001,16.001
		c8.837,0,16.001-7.164,16.001-16.001S28.338,4.387,19.501,4.387z M27.133,17.771c0,0,0.453,4.551-3.539,8.243
		C17.706,31.454,11,26.976,11,26.976c2.832,0.656,5.36-1.365,5.36-1.365c-2.528-0.506-3.387-2.629-3.387-2.629
		c0.556,0.252,1.466-0.254,1.466-0.254c-2.933-0.759-2.718-3.489-2.718-3.489c0.266,0.354,1.504,0.404,1.504,0.404
		c-2.629-2.377-1.011-4.956-1.011-4.956c2.781,3.793,7.533,3.944,7.533,3.944c-0.303-2.73,1.57-3.894,1.57-3.894
		c2.68-1.72,4.701,0.412,4.701,0.412c0.91,0.172,2.377-0.88,2.377-0.88c-0.037,0.847-1.467,2.111-1.467,2.111
		c0.494-0.051,2.061-0.594,2.061-0.594C28.65,16.381,27.133,17.771,27.133,17.771z"/>
</g>
<rect fill="none" width="40" height="40"/>
</svg>
