<?xml version="1.0" encoding="utf-8"?>
<!-- Generator: Adobe Illustrator 15.0.2, SVG Export Plug-In . SVG Version: 6.00 Build 0)  -->
<!DOCTYPE svg PUBLIC "-//W3C//DTD SVG 1.1//EN" "http://www.w3.org/Graphics/SVG/1.1/DTD/svg11.dtd">
<svg version="1.1" id="Layer_1" xmlns="http://www.w3.org/2000/svg" xmlns:xlink="http://www.w3.org/1999/xlink" x="0px" y="0px"
	 width="40px" height="40px" viewBox="0 0 40 40" enable-background="new 0 0 40 40" xml:space="preserve">
<path fill="#1C140D" d="M20.406,4.225c-8.836,0-16,7.163-16,16s7.164,16,16,16c8.836,0,16-7.163,16-16S29.242,4.225,20.406,4.225z
	 M16,27h-3V17h3V27z M14.566,16.263c-0.96,0-1.601-0.68-1.581-1.52c-0.02-0.88,0.62-1.541,1.601-1.541c0.98,0,1.6,0.66,1.62,1.541
	C16.206,15.583,15.566,16.263,14.566,16.263z M27,27h-3v-5.176c0-1.26-0.048-2.12-1.147-2.12c-0.84,0-1.437,0.58-1.636,1.14
	c-0.08,0.18-0.217,0.48-0.217,0.76V27h-3v-6.416C18,19.364,18.505,18,18.465,17h2.641l0.141,1h0.06c0.399,0,0.986-1.158,2.607-1.158
	c2,0,3.087,1.722,3.087,4.603V27z"/>
<rect fill="none" width="40" height="40"/>
</svg>
