<?xml version="1.0" encoding="utf-8"?>
<!-- Generator: Adobe Illustrator 15.0.2, SVG Export Plug-In . SVG Version: 6.00 Build 0)  -->
<!DOCTYPE svg PUBLIC "-//W3C//DTD SVG 1.1//EN" "http://www.w3.org/Graphics/SVG/1.1/DTD/svg11.dtd">
<svg version="1.1" id="Layer_1" xmlns="http://www.w3.org/2000/svg" xmlns:xlink="http://www.w3.org/1999/xlink" x="0px" y="0px"
	 width="40px" height="40px" viewBox="0 0 40 40" enable-background="new 0 0 40 40" xml:space="preserve">
<path fill-rule="evenodd" clip-rule="evenodd" fill="#455860" d="M3.908,20.431c0-8.799,7.123-15.867,15.98-15.858
	c8.662,0.009,15.771,7.143,15.774,15.83c0.005,8.757-7.116,15.908-15.837,15.904C11.019,36.303,3.908,29.211,3.908,20.431
	 M16.342,27.367c-0.258-0.051-0.488-0.096-0.718-0.143c-3.358-0.693-5.073-2.352-5.693-5.615c-0.402-2.123-0.18-4.147,1.195-5.932
	c0.103-0.133,0.102-0.396,0.062-0.58c-0.226-1.039-0.21-2.064,0.094-3.086c0.249-0.835,0.422-1.011,1.268-0.732
	c1.035,0.34,2.009,0.856,3.02,1.271c0.248,0.102,0.558,0.191,0.805,0.136c2.183-0.491,4.37-0.48,6.548-0.037
	c0.512,0.104,0.869-0.01,1.308-0.228c0.891-0.443,1.812-0.853,2.758-1.154c0.824-0.263,1.076-0.079,1.238,0.752
	c0.139,0.709,0.348,1.47,0.219,2.147c-0.183,0.961,0.063,1.66,0.56,2.464c0.907,1.47,0.882,3.143,0.651,4.807
	c-0.403,2.896-2.049,4.725-4.828,5.553c-0.596,0.178-1.213,0.283-1.879,0.436c1.403,1.604,0.756,3.561,0.961,5.375
	c4-1.043,9.455-5.828,8.945-13.382c-0.447-6.625-6.119-11.981-12.831-12.086C13.104,7.225,7.356,12.355,6.732,19.347
	c-0.635,7.114,4.402,12.19,8.93,13.467v-1.902c-0.214,0.025-0.402,0.053-0.591,0.068c-1.416,0.113-2.799-0.047-3.61-1.348
	c-0.673-1.076-1.115-2.277-2.263-3.01c-0.357-0.229-0.203-0.684,0.239-0.682c0.503,0,1.082,0.074,1.49,0.334
	c0.493,0.314,0.891,0.82,1.24,1.307c0.682,0.949,1.538,1.283,2.703,1.125C15.697,28.594,15.976,28.02,16.342,27.367"/>
<rect fill-rule="evenodd" clip-rule="evenodd" fill="none" width="40" height="40"/>
</svg>
